<svg xmlns="http://www.w3.org/2000/svg" xmlns:xlink="http://www.w3.org/1999/xlink" viewBox="0 0 2125.98 2125.98"><defs><style>.a{fill:none;}.b{isolation:isolate;}.c{clip-path:url(#a);}.d{fill:#0b0d0b;opacity:0.37;}.d,.l{fill-opacity:0.7;}.d,.g,.n{mix-blend-mode:multiply;}.e{fill:#2d222b;}.f,.o{fill:#fff;}.g{opacity:0.33;}.h{fill:#d0228e;}.i,.j{fill:#164622;}.j{stroke:#fff;}.j,.o{stroke-miterlimit:10;stroke-width:35px;}.k{fill:#fdc3a6;}.l,.m{fill:#76b0d2;}.m{opacity:0.5;}.n{fill:#189332;opacity:0.52;}.o{stroke:#154320;}.p{fill:#154320;}</style><clipPath id="a"><circle class="a" cx="-637.8" cy="-1116.85" r="1062.99"/></clipPath></defs><title>Icon</title><g class="b"><g class="c"><path class="d" d="M275.47-813.91Q219.21-1060.66,163-1307.42c-16-70.37-61.24-130.61-124-164.38L-2.17-1944.71c-9.42-132-97.09-213.24-209-234.68v2894h180.8V320.82l198.59-.29L111.41-688.54l127.78-52.21A64.08,64.08,0,0,0,275.47-813.91Z"/><path class="d" d="M418.49-808.78Q362.24-1055.53,306-1302.28c-16-70.37-61.23-130.61-124-164.38l-41.14-472.92C129.23-2102.36-1.47-2188-149.8-2179.38H-253.49c-156.06,12.76-227,126.24-227,283.29v32.19h25.35v568.34h.72l-141.46,271.64-81.35-154.54-61-115.92-2.3,2.06-6.72,6.06L-817-1410.63a26.77,26.77,0,0,0-8.8-15.7l-21.65-18.87-36.66-31.91v-16.17a18.7,18.7,0,0,1,18.68-18.67H-838a18.66,18.66,0,0,0,18.67-18.63,18.48,18.48,0,0,0-5.46-13.17,18.72,18.72,0,0,0-13.21-5.46h-171.92a18.66,18.66,0,0,0-18.68,18.63,18.54,18.54,0,0,0,5.46,13.17,18.62,18.62,0,0,0,13.22,5.46h21.08a26.53,26.53,0,0,0,9,22l3.4,3a75.9,75.9,0,0,0-85.79,41.55l-20.08,42.57a75.87,75.87,0,0,0,36.27,101l67.69,31.92-164.26,218.88a18.64,18.64,0,0,0,15.71,28.67h267.47L-642.62-662.9c22.75,35.76,90.07,40.12,117.35,7.61l118.16-141.26V326.83l44.15-.1v393H112.68V326l198.6-.3L254.43-683.41l127.79-52.2A64.08,64.08,0,0,0,418.49-808.78Z"/><rect class="e" x="-416.49" y="-408.16" width="582.79" height="1074.68"/><path class="f" d="M253.83,319.94h-390.2l-.79-44.16-11.26-978.85v-.23l-1.35-74.86-.08-.79-6.74-386.55-4.83-273.87-1-54.08H.89a153.6,153.6,0,0,1,53.76,13.64c41.31,18.87,73,55.26,83.57,99.91a140.26,140.26,0,0,1,3.49,23.94c.08,1.83.16,3.57.24,5.39.08,2.7.16,5.4.39,8.09Z"/><g class="g"><path class="h" d="M253.83,322.28h-390.2l-.79-46.5h-76l2,45.91-253.42-.58V-335.15c25.85-4.36,77.31-16.65,126.71-56.3,1.83-1.51,3.73-3,5.55-4.6,80-67.79,93.33-159.93,96-182.77a151,151,0,0,0,56.29-44.24,153.75,153.75,0,0,0,31.64-80v-.23c279-115.44,269.59-560.92,286.64-676.6a140.26,140.26,0,0,1,3.49,23.94c.08,1.83.16,3.57.24,5.39.08,2.7.16,5.4.39,8.09Z"/></g></g><rect class="i" x="137.08" y="182.29" width="1861.74" height="1642.1" rx="149.57"/><rect class="i" x="224.51" y="345.65" width="1696.95" height="984.61"/><path class="f" d="M595.61,1068.23c-.28,0-.55,0-.83,0l-68.48-4.39a12.94,12.94,0,0,1-11.66-9.52l-10.2-37.69-20.83-14.87a13,13,0,0,1-4.45-5.63l-15.81-38.63a12.94,12.94,0,0,1,7-16.85l3.35-1.38-27.84-13.7a12.92,12.92,0,0,1-7.22-11.29l-.79-33L408,838.35l-17.56-7.43-99.15-9.47a12.93,12.93,0,0,1-11.69-13.34L283.29,708a13,13,0,0,1,2.69-7.44l42.15-54.43a12.94,12.94,0,0,1,5.21-4l35.81-15.07-12.67-19.53A12.93,12.93,0,0,1,369.8,587.8l36,7a12.83,12.83,0,0,1,5.65,2.63l21.47,17.34,81.47,35.49,26.39-13.51,4.29-28.55a12.93,12.93,0,0,1,14.57-10.88l35,4.88-4.76-28.59a12.93,12.93,0,0,1,12.75-15h7l8.19-20.79a13,13,0,0,1,6.07-6.73l41.34-21.46,5.25-13.51a12.93,12.93,0,0,1,18.84-6.31l79,48.78a12.89,12.89,0,0,1,3.43,3.07L799.92,578l76.94-19.83a12.88,12.88,0,0,1,5.76-.16l21.51,4.3,7.7-13.74a12.92,12.92,0,0,1,23.71,2.79l2.05,7.2,9.94-9.51a13,13,0,0,1,11.64-3.3l56.21,12,7.75-15a13,13,0,0,1,15.57-6.32L1065,545.2a13,13,0,0,1,7.59,6.73l24.59,51.8a12.94,12.94,0,0,1-1.56,13.59l-11.42,14.36,15.89.67a12.94,12.94,0,0,1,11.34,7.83l9.81,22.89h43.28a12.94,12.94,0,0,1,11.87,18.06l-14,32.35,21.5,33.88h18.35a12.93,12.93,0,0,1,12.84,11.37l3.51,29a12.94,12.94,0,0,1-8,13.56l-6.5,2.6-8.4,47.35a13,13,0,0,1-.92,3l-28.1,63.21a12.92,12.92,0,0,1-11.81,7.68h-41.27a12.93,12.93,0,0,1-12.84-11.42l-2.17-18.43h-20.43l-20.88,37.29a12.93,12.93,0,0,1-16.72,5.41l-54.72-25.37-40,21.51a12.91,12.91,0,0,1-8,1.41l-36.23-5.4-9.85,6.78a12.88,12.88,0,0,1-8.51,2.22L816.56,933a12.92,12.92,0,0,1-5.67-1.91l-11.67-7.29-37.43,43.4a13,13,0,0,1-8.26,4.4L652.16,983.61l-10.5,54a12.9,12.9,0,0,1-6,8.6l-33.37,20.19A12.87,12.87,0,0,1,595.61,1068.23Zm-58.43-29.63,55.21,3.54,25-15.13,11.19-57.59a13,13,0,0,1,11.17-10.37l105.74-12.58,41.4-48A12.94,12.94,0,0,1,803.53,896L822,907.49l59,5.44,10.2-7a12.83,12.83,0,0,1,9.23-2.13l37,5.51,41.87-22.55a12.92,12.92,0,0,1,11.57-.34l49.72,23.05L1059.33,876a12.94,12.94,0,0,1,11.28-6.61h39.51A12.93,12.93,0,0,1,1123,880.82l2.17,18.43h21.37l24-54.09,9.38-52.89a12.9,12.9,0,0,1,7.93-9.74l3.94-1.58-.94-7.73h-14a12.93,12.93,0,0,1-10.92-6l-29-45.65a13,13,0,0,1-1-12l8.89-20.58h-32.14a12.92,12.92,0,0,1-11.88-7.84l-10-23.25-33.14-1.41a12.93,12.93,0,0,1-9.57-21l22.2-27.94L1051.63,568,1041,564.45l-7.2,13.9a12.93,12.93,0,0,1-14.18,6.69l-59.16-12.62L939.94,592A12.93,12.93,0,0,1,918.8,587a12.93,12.93,0,0,1-10.52,2.51l-27.83-5.56-82.31,21.21a12.92,12.92,0,0,1-13.44-4.6l-31.93-41.17L689,519.94l-1.39,3.59a13,13,0,0,1-6.09,6.78l-41.36,21.48-9.64,24.47a12.94,12.94,0,0,1-12,8.19h-.54l6.27,37.62A12.94,12.94,0,0,1,618.58,635L587,656a12.93,12.93,0,0,1-18.6-16.81l7.17-13.55-6.81-.95-3.37,22.47a13,13,0,0,1-6.89,9.59L520.72,676.1a12.92,12.92,0,0,1-11.05.34L421,637.81a12.81,12.81,0,0,1-3-1.8L397.7,619.59l-2.95-.58,4.5,6.93a12.94,12.94,0,0,1-5.83,19L346.5,664.65,309,713.11l-3.07,83.76,89,8.5a12.79,12.79,0,0,1,3.8,1L421.53,816a12.82,12.82,0,0,1,5.57,4.52l34.25,49.17a12.9,12.9,0,0,1,2.31,7.08l.69,29,46.53,22.88a12.93,12.93,0,0,1-.78,23.56l-17.93,7.38,9.51,23.23,21.54,15.4a12.89,12.89,0,0,1,5,7.14Z"/><path class="f" d="M233.23,1319.36a8.72,8.72,0,1,1,0-17.43H1098a8.72,8.72,0,1,1,0,17.43Z"/><path class="f" d="M1841.51,341.69H247.35a67.6,67.6,0,0,0-67.6,67.6v910.89a67.61,67.61,0,0,0,67.6,67.6H1841.51a67.6,67.6,0,0,0,67.6-67.6V409.29A67.59,67.59,0,0,0,1841.51,341.69ZM1862,1320.18a20.5,20.5,0,0,1-20.48,20.48H1109.88a32.28,32.28,0,0,0,20.42-30h0a32.27,32.27,0,0,0-32.28-32.27H550.81v-21a29.75,29.75,0,0,0-29.75-29.75h-1.92l-12.86-18a10.27,10.27,0,0,1,0-12l1.25-1.75a10.29,10.29,0,0,0-8.38-16.27H359.77a10.3,10.3,0,0,0-7.68,17.15h0a10.27,10.27,0,0,1,0,13.7l-15.3,17.14h-1.92a29.75,29.75,0,0,0-29.75,29.75v21H233.23a32.43,32.43,0,0,0-6.36.63V409.29a20.51,20.51,0,0,1,20.48-20.49H1841.51A20.5,20.5,0,0,1,1862,409.29Z"/><rect class="f" x="1169.76" y="568.07" width="385.7" height="536.85"/><rect class="f" x="1323.35" y="954.79" width="256.95" height="884.4"/><path class="i" d="M1428.28,341.69h-66.9A148.42,148.42,0,0,0,1213,490.11V701.25a148.42,148.42,0,0,0,148.42,148.42h20.91V949a47,47,0,0,0,47,47h8.37a47,47,0,0,0,47-47V838.49a148.39,148.39,0,0,0,92-137.24V490.11A148.42,148.42,0,0,0,1428.28,341.69Z"/><path class="j" d="M1421.09,1839.18H1213V1529.12l-106.25,127c-24.53,29.23-85.05,25.31-105.52-6.84l-207.53-344.2H566.35a16.77,16.77,0,0,1-14.13-25.79l135.93-181.13L624,1067.93a52.2,52.2,0,0,1-25-69.48L630.8,931.2A52.19,52.19,0,0,1,697.28,905a23.93,23.93,0,0,1,4.35-37.89,16.73,16.73,0,0,0-8.23-2.17H671.51a16.76,16.76,0,1,1,0-33.51H749.2v55.43L817,945.88l19.47,17A24,24,0,0,1,844.42,977l62.7,111.82,6-5.45a2.12,2.12,0,0,1,1.44-.55c.76,0,20.36-12.12,20.76-11.38L1041.28,1321a2.17,2.17,0,0,0,3.84,0L1187,1048.53q2.46-4.92,5.26-9.65a166.94,166.94,0,0,1,108.13-78.47L1361.23,924l1.39,30.75,0,.55,1.35,30.18,18.29,132.79c1,.72.82,31.81,0,32.79l16.94,155.36,18.94,425.67Z"/><rect class="k" x="1348.02" y="1479.9" width="47.8" height="189.76" rx="15.53" transform="translate(2318.63 -286.9) rotate(68.02)"/><path class="f" d="M1147,569.4h370l11.55,521.4s117.47,2.29,119.12,0,3.12-147.21,2.35-144.54,27.47,145.56,27.47,145.56H1757l-51.35-590.47c-10.45-146.37-128-223.41-261.34-215.62h-93.24C1210.79,297.2,1147,399.24,1147,540.45Z"/><path class="l" d="M932,1305.08H793.68l-11.06-18.34-33.44-55.47,62-55.86L816,1171l28.06-25.33L946,1279A16.77,16.77,0,0,1,932,1305.08Z"/><polygon class="m" points="904.46 1305.08 793.68 1305.08 782.62 1286.74 749.18 1231.27 811.13 1175.41 904.46 1305.08"/><polygon class="n" points="671.26 1145.7 823.28 1145.7 918.8 1273.77 581.2 1273.77 671.26 1145.7"/><path class="i" d="M1517.05,1821.68l-2.32-201.8-1.22-68-.07-.7-6-346.85-4.89-277.07h128.39a119.73,119.73,0,0,1,41.64,10.66c33,15.08,57.45,44.22,65.41,78a107.54,107.54,0,0,1,2.69,18.42l.21,4.59c.07,2.53.15,5.15.4,8l52,774.86Z"/><path class="f" d="M1630.24,944.73a102.18,102.18,0,0,1,35,9.06h0l0,0a103.33,103.33,0,0,1,35.77,27,93,93,0,0,1,19.85,39,90.92,90.92,0,0,1,2.26,15.32l.09,2.1.1,2.24c.08,2.58.17,5.47.44,8.66l50.69,756H1534.35l-2.11-184v-.65l-1.21-67.3,0-1.45-.07-.71-6-346.11-4.35-246.26-.06-3.56-.17-9.44h109.93m1.25-35h-146.8l.8,45.06.06,3.56,4.34,246.26,6.06,347.57.07.71,1.22,67.3v.22l2.51,218.77h312.16l-53.22-793.7c-.22-2.43-.29-4.85-.36-7.28-.08-1.64-.15-3.21-.22-4.85a124.72,124.72,0,0,0-3.14-21.53c-9.47-40.14-38-72.86-75.14-89.84a137.89,137.89,0,0,0-48.34-12.25Z"/><path class="j" d="M1733.68,1173.88l-21.55,40.48-115.72,217.33-67.65,28-19.47-283.84c-.35.19-.62.24-.62,0s1.65-44.53,9.88-266.06c18-5.88,46.82-6.87,73.22-7a698.58,698.58,0,0,1,100,7c1,0,2,.12,3,.2q5.09.35,10.09,1h0a123.88,123.88,0,0,1,15.61,5.28,216.63,216.63,0,0,1,28.11,13.67c-1.52,20.08-9.67,39.57-23.81,56.22-7.17,8.44-15.22,17.89-23.82,27.95-19.35,22.65-41.43,48.38-62.35,72.57l71.79,35.1,8,3.9C1734.26,1139.8,1741.93,1157.34,1733.68,1173.88Z"/><polygon class="j" points="1596.41 1431.69 1531.89 1552.89 1531.8 1552.18 1530.26 1481.51 1528.76 1459.64 1596.41 1431.69"/><path class="j" d="M1748.82,922q0,4-.25,7.89a216.63,216.63,0,0,0-28.11-13.67,123.88,123.88,0,0,0-15.61-5.28A185,185,0,0,1,1748.82,922Z"/><path class="j" d="M1379.87,1503l-16.12-308.59c.36.19.61.24.61,0s-2.78-49.24-14.8-260.15c-16.41.79-47.06,4.07-79.76,19.45a199.56,199.56,0,0,0-37.94,14.71,177.13,177.13,0,0,0-51.61,39.44c-6.94,29.41.35,36.83,21,61.15,23.36,27.44,19.47,13.17,49.7,48.09l-45.5,34.43c-15.89,14.16-23.62,31.7-15.35,48.25l193.5,375-3.78-71.77Z"/><path class="o" d="M1763.14,1717.76l-163.49-451.32a30.22,30.22,0,0,0-38.69-18.11l-44.89,16.26-.45-1.24a16.11,16.11,0,0,0-20.63-9.66h0a16.1,16.1,0,0,1-20.63-9.66l-.54-1.48a16.1,16.1,0,0,0-20.63-9.66l-88.92,32.21a16.11,16.11,0,0,0-9.66,20.64l.54,1.48a16.11,16.11,0,0,1-9.66,20.63,16.1,16.1,0,0,0-9.66,20.63l.45,1.25L1291.39,1346a30.2,30.2,0,0,0-18.11,38.68L1436.78,1836a30.2,30.2,0,0,0,38.68,18.11L1745,1756.44A30.19,30.19,0,0,0,1763.14,1717.76Z"/><path class="j" d="M1704.83,910.92q-5-.64-10.09-1C1697,909.48,1700.39,909.8,1704.83,910.92Z"/><path class="i" d="M1331.87,1773.64a34.62,34.62,0,0,1-33.65-26.38l-17.83-72.18a34.76,34.76,0,0,1,16.68-38.58l15.41-8.64-8.73-15.23-6-14.82,83.23-33.6-7.75-21.4,325.32-134.39,2.25-8.32a854.6,854.6,0,0,0,28.59-181l19.82-37.22.1-.2c11.22-22.49,4-48.34-19.33-69.14l-1.8-1.6-1.06-.52c-2.3-32.08-5.52-65.58-8-90.71,6.79-8,13.18-15.46,19-22.31a119.58,119.58,0,0,0,22.25-38.73,208.28,208.28,0,0,1,76.75,119.59l101.2,443.85a40.16,40.16,0,0,1-22.48,45.69l-464.73,189.87-4.14-11.43-106.71,26.36A35,35,0,0,1,1331.87,1773.64Z"/><path class="f" d="M1766.65,987.08a191.54,191.54,0,0,1,53.38,95.08l44,193.16q28.56,125.29,57.13,250.58l0,.11,0,.11a22.65,22.65,0,0,1-12.41,25.64l-447.51,182.83-3.29-9.11-30.58,7.56L1336,1755.63a17.49,17.49,0,0,1-4.17.51,17.14,17.14,0,0,1-16.66-13.08l-17.83-72.18a17.24,17.24,0,0,1,8.25-19.12l30.83-17.28-15.56-27.13,51-20.59,31.3-12.64-7.79-21.53,146.7-60.6,67.66-28,87.52-36.15,15.93-6.58,4.5-16.64a872.94,872.94,0,0,0,29-180.77l17.88-33.58.21-.41.21-.42c14.32-28.7,6.26-62.1-21-87.8-2-26.85-4.59-54.14-6.79-76.29,5.29-6.19,10-11.7,14.17-16.65a141.8,141.8,0,0,0,15.22-21.67m-18.08-57.21c-1.52,20.08-9.67,39.57-23.81,56.22-7.17,8.44-15.22,17.89-23.82,27.95,3.47,34.12,7.11,72.4,9.44,107.67l8,3.9c15.9,14.19,23.57,31.73,15.32,48.27l-21.55,40.49a836.55,836.55,0,0,1-28.19,181.17l-87.53,36.15-67.65,28L1351.11,1533l7.7,21.27-70.87,28.61a14,14,0,0,0-7.72,18.17l7.44,18.44a14.47,14.47,0,0,0,.85,1.72,52.22,52.22,0,0,0-25.11,58l17.83,72.17a52.13,52.13,0,0,0,63.2,38.15l91.43-22.58,5,13.75,481.87-196.87a57.61,57.61,0,0,0,32.62-65.78q-50.58-221.86-101.17-443.75c-13.92-61-52.23-113.61-105.59-144.5Z"/><path class="f" d="M566.35,1322.58a34.26,34.26,0,0,1-28.88-52.69c.22-.35.45-.69.7-1,55.91-75.34,139.38-188.45,154.48-210.55V882.38H671.51a34.25,34.25,0,1,1,0-68.5H826.1a34.2,34.2,0,0,1,24.17,10l.08.08a34.24,34.24,0,0,1-24.25,58.46h-24v174.05L960,1268.58c.2.26.38.53.56.8a34.27,34.27,0,0,1-28.58,53.2Z"/><path class="p" d="M826.1,831.38A16.86,16.86,0,0,1,838,836.29a16.74,16.74,0,0,1-11.88,28.59H801.4a16.81,16.81,0,0,0-16.79,16.79v180.56L946,1279a16.78,16.78,0,0,1-14,26H566.35a16.76,16.76,0,0,1-14.13-25.78s157.93-212.79,157.93-216V881.67a16.79,16.79,0,0,0-16.76-16.79H671.51a16.75,16.75,0,1,1,0-33.5H826.1m0-35H671.51a51.75,51.75,0,1,0,0,103.5h3.64v152.95c-20.88,29.66-100.48,137.49-151,205.61q-.75,1-1.41,2a51.77,51.77,0,0,0,43.64,79.6H932a51.78,51.78,0,0,0,43.18-80.35c-.36-.54-.73-1.07-1.12-1.59L819.61,1050.63V899.88h6.49a51.75,51.75,0,0,0,36.63-88.34l-.16-.15a51.58,51.58,0,0,0-36.47-15Z"/></g></svg>